<svg xmlns="http://www.w3.org/2000/svg" width="36" height="36" viewBox="0 0 36 36">
    <g fill="none" fill-rule="evenodd">
        <circle cx="18" cy="18" r="12" fill="#A0A1A7"/>
        <path fill="#FFF" d="M18.02 16.869l4.032-3.894a.795.795 0 0 1 1.127.023c.307.318.3.823-.016 1.128l-4.032 3.894 3.894 4.032a.795.795 0 0 1-.023 1.127.797.797 0 0 1-1.128-.016l-3.894-4.032-4.032 3.894a.795.795 0 0 1-1.127-.023.797.797 0 0 1 .016-1.128l4.032-3.894-3.894-4.032a.795.795 0 0 1 .023-1.127.797.797 0 0 1 1.128.016l3.894 4.032z"/>
    </g>
</svg>
